<?xml version="1.0" encoding="UTF-8"?>
<svg width="1200pt" height="1200pt" version="1.1" viewBox="0 0 1200 1200" xmlns="http://www.w3.org/2000/svg" fill="#39ff14">
 <path d="m224.62 1067.2-30.375 30.375c-11.25 11.25-29.25 11.25-40.5 0l-51.375-51.375c-11.25-11.25-11.25-29.25 0-40.5l31.875-31.875c3-3 7.5-3 10.5 0l132-132 81.375 81.375-132 132s2.25 8.25-1.5 12z"/>
 <path d="m1051.9 580.88-240.75 240.75c-59.25 59.25-148.5 69.75-218.25 31.5-102.38-37.125-155.25 15.75-155.25 15.75l-13.875 13.875c-7.875 7.875-20.625 7.875-28.875 0l-77.625-77.625c-7.875-7.875-7.875-20.625 0-28.875l13.875-13.875s52.875-53.25 15.75-155.25c-38.25-69.75-27.75-159.38 31.5-218.25l240.75-240.75c72-72 188.62-72 260.62 0l172.5 172.5c72 72 72 188.62 0 260.62z"/>
</svg>
